<mxfile host="app.diagrams.net" agent="Mozilla/5.0 (Windows NT 10.0; Win64; x64) AppleWebKit/537.36 (KHTML, like Gecko) Chrome/136.0.0.0 Safari/537.36" version="26.3.0">
  <diagram name="Page-1" id="W5e96Fal64FUyldFSSKt">
    <mxGraphModel dx="1425" dy="512" grid="1" gridSize="10" guides="1" tooltips="1" connect="1" arrows="1" fold="1" page="1" pageScale="1" pageWidth="827" pageHeight="1169" math="0" shadow="0">
      <root>
        <mxCell id="0" />
        <mxCell id="1" parent="0" />
        <mxCell id="17p4rllL8ngChfZECeuH-1" value="Workflow Penjualan" style="swimlane;childLayout=stackLayout;resizeParent=1;resizeParentMax=0;startSize=20;html=1;" vertex="1" parent="1">
          <mxGeometry x="250.00000000000045" y="105" width="240" height="480" as="geometry">
            <mxRectangle x="230.00000000000045" y="140" width="60" height="30" as="alternateBounds" />
          </mxGeometry>
        </mxCell>
        <mxCell id="17p4rllL8ngChfZECeuH-2" value="Pelanggan" style="swimlane;startSize=20;html=1;" vertex="1" parent="17p4rllL8ngChfZECeuH-1">
          <mxGeometry y="20" width="120" height="460" as="geometry" />
        </mxCell>
        <mxCell id="17p4rllL8ngChfZECeuH-6" value="START" style="ellipse;whiteSpace=wrap;html=1;" vertex="1" parent="17p4rllL8ngChfZECeuH-2">
          <mxGeometry x="20" y="40" width="80" height="50" as="geometry" />
        </mxCell>
        <mxCell id="17p4rllL8ngChfZECeuH-7" value="&lt;font style=&quot;font-size: 11px;&quot;&gt;Mengakses Website&lt;/font&gt;" style="rounded=1;whiteSpace=wrap;html=1;" vertex="1" parent="17p4rllL8ngChfZECeuH-2">
          <mxGeometry x="17.5" y="125" width="85" height="45" as="geometry" />
        </mxCell>
        <mxCell id="17p4rllL8ngChfZECeuH-8" value="&lt;font style=&quot;font-size: 11px;&quot;&gt;Memilih Produk Tanaman Hias&lt;/font&gt;" style="rounded=1;whiteSpace=wrap;html=1;" vertex="1" parent="17p4rllL8ngChfZECeuH-2">
          <mxGeometry x="17.5" y="207.5" width="85" height="45" as="geometry" />
        </mxCell>
        <mxCell id="17p4rllL8ngChfZECeuH-9" value="&lt;font style=&quot;font-size: 11px;&quot;&gt;Menambahkan ke Keranjang&lt;/font&gt;" style="rounded=1;whiteSpace=wrap;html=1;" vertex="1" parent="17p4rllL8ngChfZECeuH-2">
          <mxGeometry x="17.5" y="285" width="85" height="45" as="geometry" />
        </mxCell>
        <mxCell id="17p4rllL8ngChfZECeuH-3" value="Penjual" style="swimlane;startSize=20;html=1;" vertex="1" parent="17p4rllL8ngChfZECeuH-1">
          <mxGeometry x="120" y="20" width="120" height="460" as="geometry" />
        </mxCell>
      </root>
    </mxGraphModel>
  </diagram>
</mxfile>
